<?xml version="1.0" encoding="utf-8"?>
<!-- Generator: Adobe Illustrator 21.1.0, SVG Export Plug-In . SVG Version: 6.00 Build 0)  -->
<svg version="1.1" id="design" xmlns="http://www.w3.org/2000/svg" xmlns:xlink="http://www.w3.org/1999/xlink" x="0px" y="0px"
	 viewBox="0 0 548 390.3" style="enable-background:new 0 0 548 390.3;" xml:space="preserve">
<style type="text/css">
	.st0{fill:none;stroke:#95C8EC;stroke-width:3;stroke-linecap:round;stroke-miterlimit:10;stroke-dasharray:12.0112,12.0112;}
	.st1{display:none;}
	.st2{display:inline;fill:#6A797F;}
	.st3{display:inline;fill:#F5FBF7;}
	.st4{display:inline;fill:#D0D8DC;}
	.st5{display:inline;fill:#90A4AE;}
	.st6{fill:#79B9E2;}
	.st7{fill:#57A7DB;}
	.st8{fill:#E4F2FB;}
	.st9{fill:#95C8EC;}
	.st10{fill:#D0D8DC;}
	.st11{fill:#FFFFFF;}
	.st12{fill:#81C784;}
	.st13{fill:#5FB75F;}
	.st14{fill:#799099;}
	.st15{fill:#F4AE7A;}
	.st16{fill:#BDDDF4;}
	.st17{fill:#EBEEF2;}
	.st18{fill:#71BE72;}
	.st19{fill:#F4C9AB;}
	.st20{fill:#57A7DB;stroke:#57A7DB;stroke-miterlimit:10;}
	.st21{fill:#41565B;}
	.st22{fill:#CDD6DF;}
	.st23{fill:#ABB2BA;}
	.st24{fill:#FCD0AE;}
	.st25{fill:#ECEFF0;}
	.st26{fill:#65B8EA;}
	.st27{fill:#CED5D8;}
	.st28{fill:#B0BEC5;}
	.st29{fill:#E59F6A;}
	.st30{fill:#F5F5F5;}
</style>
<g>
	<circle class="st0" cx="271.9" cy="195.1" r="172"/>
</g>
<g>
	<g id="_Group_6_3_" class="st1">
		<path id="_Path_4_3_" class="st2" d="M131.8,26.4c-4.1,0-7.5,3.4-7.5,7.5l0,0l0,0v183.7c0,4.1,3.3,7.5,7.2,7.5l0,0h284.7
			c4.1,0,7.5-3.4,7.5-7.5l0,0V33.9c0-4.1-3.4-7.5-7.5-7.5l0,0L131.8,26.4L131.8,26.4z"/>
		<path id="_Path_5_3_" class="st3" d="M108.1,233.4H440c8.7,0,15.7-7.1,15.7-15.7H92.2C92.2,226.3,99.3,233.4,108.1,233.4z"/>
		<path id="_Path_6_3_" class="st4" d="M94.7,226.1c2.9,4.5,8,7.2,13.2,7.5h331.9c5.4,0.1,10.5-2.7,13.2-7.5H94.7z"/>
		<circle id="_Path_7_3_" class="st5" cx="121" cy="221.4" r="1.7"/>
		<circle id="_Path_8_3_" class="st5" cx="116.1" cy="221.4" r="1.9"/>
		<circle id="_Path_9_3_" class="st5" cx="111.2" cy="221.4" r="1.9"/>
	</g>
	<g>
		<g id="_Group_2-2_4_">
			<rect x="115.3" y="25.1" class="st6" width="317.3" height="197.9"/>
		</g>
		<rect id="_Path_18_3_" x="115.3" y="25.1" class="st7" width="317.9" height="12.9"/>
		<rect id="_Path_18_1_" x="115.3" y="210.6" class="st7" width="317.9" height="12.9"/>
		<g id="_Group_4_4_">
			<path id="_Path_19_3_" class="st8" d="M408.4,32.8L408.4,32.8c-1.5,0-2.7-1.2-2.7-2.7l0,0c0-1.5,1.2-2.7,2.7-2.7l0,0
				c1.5,0,2.7,1.2,2.7,2.7l0,0C411,31.6,409.9,32.8,408.4,32.8z"/>
			<path id="_Path_20_3_" class="st8" d="M416.8,32.8L416.8,32.8c-1.5,0-2.7-1.2-2.7-2.7l0,0c0-1.5,1.2-2.7,2.7-2.7l0,0
				c1.5,0,2.7,1.2,2.7,2.7l0,0C419.6,31.6,418.4,32.8,416.8,32.8z"/>
			<path id="_Path_21_3_" class="st8" d="M425.2,32.8L425.2,32.8c-1.5,0-2.7-1.2-2.7-2.7l0,0c0-1.5,1.2-2.7,2.7-2.7l0,0
				c1.5,0,2.7,1.2,2.7,2.7l0,0C427.9,31.6,426.8,32.8,425.2,32.8z"/>
		</g>
		<rect id="_Path_23_3_" x="276.8" y="53.6" class="st9" width="39.5" height="39"/>
		<rect id="_Path_25_4_" x="145.4" y="106.8" class="st9" width="118.6" height="39"/>
		<rect id="_Path_25_5_" x="145.4" y="53.6" class="st9" width="118.6" height="39"/>
		<rect id="_Path_26_3_" x="145.4" y="160.1" class="st9" width="118.6" height="39"/>
		<rect id="_Path_27_5_" x="326.3" y="53.6" class="st9" width="39.5" height="39"/>
		<rect id="_Path_28_3_" x="276.8" y="106.8" class="st9" width="39.5" height="39"/>
		<rect id="_Path_29_3_" x="326.3" y="106.8" class="st9" width="39.5" height="39"/>
		<rect id="_Path_30_4_" x="376" y="106.8" class="st9" width="39.5" height="39"/>
		<rect id="_Path_30-2_4_" x="376" y="53.6" class="st9" width="39.5" height="39"/>
		<rect id="_Path_31_3_" x="276.8" y="160.1" class="st9" width="39.5" height="39"/>
		<rect id="_Path_32_3_" x="326.3" y="160.1" class="st9" width="39.5" height="39"/>
		<rect id="_Path_32_4_" x="376" y="160.1" class="st9" width="39.5" height="39"/>
	</g>
</g>
<g>
	<g>
		<path class="st10" d="M152,71.8c0,19.8,10.9,38,28.3,50.8c16.9,12.7,40.5,20.4,66.6,20.5h6.2c1.5,0,3.1-0.1,4.7-0.4l30.6,33.3
			c0.9,0.9,2.1,1.1,3.1,0.8c1.6-0.5,2.6-2.2,2.3-3.9l-9.7-35.3c17-5.4,31.5-13.9,41.9-25.2c10.9-11.6,17-25.5,17-41
			c0-19.8-10.9-38-28.3-50.8C297.8,7.7,274,0,247.6,0c-25.9,0-49.8,8.1-67.3,21S152,52,152,71.8z"/>
		<g id="XMLID_2_">
			<g>
				<path class="st11" d="M158.6,71.8c0,17.8,9.7,34.1,25.6,45.7c16.3,12,38.4,19.4,63.2,19.4h5.4c2,0,3.9-0.4,5.9-0.4
					c1,0,2,0.4,2.7,1.2l22,24.4l-6.9-25.2c-0.3-1.7,0.7-3.4,2.3-3.9c17-5,31.8-13.6,41.9-24.4c9.7-10.4,15.5-23.2,15.5-36.8
					c0-17.8-9.8-34.1-25.6-45.7c-16.3-12-38.2-19.4-63.1-19.4s-47,7.4-63.3,19.4C168.4,37.7,158.6,54,158.6,71.8z"/>
			</g>
			<g>
			</g>
		</g>
	</g>
	<g>
		<g>
			<g>
				<g>
					<g>
						<g>
							<g>
								<g>
									<g>
										<path class="st7" d="M251.7,25.1c-2.3,0-5.9,0-8.2,0h-29.8c-2.3,0-4.1,1.8-4.1,4.1v86.3c0,2.3,1.8,4.1,4.1,4.1h29.8
											c2.3,0,5.9,0,8.2,0h29.8c2.3,0,4.1-1.8,4.1-4.1V29.2c0-2.3-1.8-4.1-4.1-4.1L251.7,25.1z"/>
									</g>
								</g>
							</g>
							<g>
								<g>
									<g>
										<g>
											<g>
												<g>
													<g>
														<g>
															<g>
																<path class="st11" d="M276.1,31h-57c-1.8,0-3.3,1.5-3.3,3.3v76c0,1.8,1.5,3.3,3.3,3.3h57c1.8,0,3.3-1.5,3.3-3.3
																	V48.2V34.6C279.4,32.6,277.9,31,276.1,31z"/>
															</g>
														</g>
													</g>
												</g>
											</g>
										</g>
									</g>
								</g>
							</g>
							<g>
								<g>
									<path class="st12" d="M254.8,20.7c0-3.9-3.3-7.2-7.2-7.2s-7.2,3.1-7.2,7.2h-15.7v14.4h46V20.7H254.8z"/>
								</g>
							</g>
						</g>
					</g>
				</g>
				<g>
					<g>
						<circle class="st11" cx="247.6" cy="21" r="3.1"/>
					</g>
				</g>
			</g>
			<g>
				<g>
					<rect x="224.7" y="31" class="st13" width="46" height="4.4"/>
				</g>
			</g>
			<g>
				<g>
					<g>
						<g>
							<rect x="238.7" y="45.4" class="st14" width="13.7" height="2.1"/>
						</g>
					</g>
					<g>
						<g>
							<rect x="238.7" y="50.8" class="st14" width="36.1" height="2.1"/>
						</g>
					</g>
					<g>
						<g>
							<rect x="238.7" y="55.9" class="st14" width="36.1" height="2.1"/>
						</g>
					</g>
				</g>
				<g>
					<g>
						<g>
							<rect x="238.7" y="73.4" class="st14" width="36.1" height="2.1"/>
						</g>
					</g>
					<g>
						<g>
							<rect x="238.7" y="78.5" class="st14" width="36.1" height="2.1"/>
						</g>
					</g>
					<g>
						<g>
							<rect x="238.7" y="68" class="st14" width="13.7" height="2.1"/>
						</g>
					</g>
				</g>
				<g>
					<g>
						<g>
							<rect x="238.7" y="95.8" class="st14" width="36.1" height="2.1"/>
						</g>
					</g>
					<g>
						<g>
							<rect x="238.7" y="100.9" class="st14" width="36.1" height="2.1"/>
						</g>
					</g>
					<g>
						<g>
							<rect x="238.7" y="90.4" class="st14" width="13.7" height="2.1"/>
						</g>
					</g>
				</g>
				<g>
					<path class="st15" d="M229.1,59.3h-3.2v-8.8l0-1.4l0.1-1.6c-0.5,0.5-0.9,0.9-1.1,1l-1.7,1.4l-1.5-1.9l4.9-3.9h2.6V59.3z"/>
				</g>
				<g>
					<path class="st15" d="M232.2,82h-10.6v-2.2l3.8-3.8c1.1-1.2,1.9-2,2.2-2.4c0.3-0.4,0.6-0.9,0.7-1.2c0.2-0.4,0.2-0.8,0.2-1.2
						c0-0.6-0.2-1.1-0.5-1.4c-0.3-0.3-0.8-0.4-1.3-0.4c-0.6,0-1.2,0.1-1.7,0.4c-0.6,0.3-1.1,0.7-1.7,1.2l-1.7-2.1
						c0.7-0.6,1.4-1.1,1.9-1.3c0.5-0.3,1-0.5,1.6-0.6c0.6-0.1,1.2-0.2,1.9-0.2c0.9,0,1.8,0.2,2.5,0.5c0.7,0.3,1.3,0.8,1.7,1.5
						c0.4,0.6,0.6,1.3,0.6,2.1c0,0.7-0.1,1.4-0.4,2c-0.2,0.6-0.6,1.2-1.1,1.9c-0.5,0.6-1.4,1.6-2.7,2.7l-1.9,1.8v0.1h6.6V82z"/>
				</g>
				<g>
					<path class="st15" d="M231.7,92.5c0,0.9-0.3,1.8-0.9,2.4c-0.6,0.7-1.4,1.1-2.4,1.4v0.1c1.2,0.2,2.1,0.5,2.8,1.1
						c0.6,0.6,0.9,1.4,0.9,2.4c0,1.5-0.5,2.6-1.6,3.4s-2.6,1.2-4.5,1.2c-1.6,0-3.1-0.3-4.4-0.8v-2.7c0.6,0.3,1.2,0.5,1.9,0.7
						c0.7,0.2,1.4,0.3,2.1,0.3c1.1,0,1.8-0.2,2.3-0.5c0.5-0.4,0.8-0.9,0.8-1.7c0-0.7-0.3-1.2-0.9-1.5c-0.6-0.3-1.5-0.4-2.8-0.4h-1.2
						v-2.5h1.2c1.2,0,2-0.2,2.6-0.5c0.5-0.3,0.8-0.8,0.8-1.6c0-1.1-0.7-1.7-2.2-1.7c-0.5,0-1,0.1-1.5,0.2c-0.5,0.2-1.1,0.5-1.7,0.9
						l-1.5-2.2c1.4-1,3-1.5,4.9-1.5c1.6,0,2.8,0.3,3.7,1C231.2,90.5,231.7,91.3,231.7,92.5z"/>
				</g>
			</g>
		</g>
	</g>
</g>
<g>
	<g>
		<path class="st11" d="M129.9,240.3c-0.7,0-1.4-0.3-1.9-0.7l-44.4-38.3H11.2c-3.3,0-6.1-2.7-6.1-6.1v-91.9c0-3.3,2.7-6.1,6.1-6.1
			h127.5c3.3,0,6.1,2.7,6.1,6.1v91.9c0,3.3-2.7,6.1-6.1,6.1h-17.6l11.7,35.4l0,0.2c0.1,0.9-0.1,1.7-0.7,2.4
			C131.6,240,130.8,240.3,129.9,240.3z"/>
		<path class="st10" d="M138.7,99.9c1.8,0,3.3,1.5,3.3,3.3v91.9c0,1.8-1.5,3.3-3.3,3.3h-21.4l12.8,38.8c0,0.1-0.1,0.3-0.2,0.3
			c0,0-0.1,0-0.1-0.1l-45.2-39H11.2c-1.8,0-3.3-1.5-3.3-3.3v-91.9c0-1.8,1.5-3.3,3.3-3.3H138.7 M138.7,94.4H11.2
			c-4.9,0-8.8,4-8.8,8.8v91.9c0,4.9,4,8.8,8.8,8.8h71.3l43.6,37.7c1,0.9,2.4,1.4,3.7,1.4c1.7,0,3.3-0.7,4.3-2
			c1.1-1.3,1.6-2.9,1.3-4.6l-0.1-0.4l-0.1-0.4L124.9,204h13.8c4.9,0,8.8-4,8.8-8.8v-91.9C147.5,98.4,143.6,94.4,138.7,94.4
			L138.7,94.4z"/>
	</g>
	<g>
		<g>
			<path class="st7" d="M110.6,183.6c0,1.5-1.3,2.6-2.6,2.6H50.8c-1.5,0-2.6-1.3-2.6-2.6v-70.3c0-1.5,1.3-2.6,2.6-2.6h57.3
				c1.5,0,2.6,1.3,2.6,2.6V183.6z"/>
		</g>
		<g>
			<path class="st16" d="M106.3,134c0,0.8-0.5,1.3-1.3,1.3H53.8c-0.8,0-1.3-0.5-1.3-1.3v-12c0-0.8,0.5-1.3,1.3-1.3H105
				c0.8,0,1.3,0.5,1.3,1.3V134z"/>
			<path class="st16" d="M58.2,134v-12c0-0.8,0.5-1.3,1.3-1.3h-5.9c-0.8,0-1.3,0.5-1.3,1.3v12c0,0.8,0.5,1.3,1.3,1.3h5.9
				C58.7,135.3,58.2,134.8,58.2,134z"/>
		</g>
		<g>
			<path class="st17" d="M61.5,145.8c0,0.8-0.5,1.3-1.3,1.3h-6.4c-0.8,0-1.3-0.5-1.3-1.3v-6.1c0-0.8,0.5-1.3,1.3-1.3h6.4
				c0.8,0,1.3,0.5,1.3,1.3V145.8z"/>
			<path class="st17" d="M72.5,145.8c0,0.8-0.5,1.3-1.3,1.3h-6.4c-0.8,0-1.3-0.5-1.3-1.3v-6.1c0-0.8,0.5-1.3,1.3-1.3h6.4
				c0.8,0,1.3,0.5,1.3,1.3V145.8z"/>
			<path class="st17" d="M83.8,145.8c0,0.8-0.5,1.3-1.3,1.3h-6.4c-0.8,0-1.3-0.5-1.3-1.3v-6.1c0-0.8,0.5-1.3,1.3-1.3h6.4
				c0.8,0,1.3,0.5,1.3,1.3V145.8L83.8,145.8z"/>
		</g>
		<g>
			<path class="st6" d="M95,145.8c0,0.8-0.5,1.3-1.3,1.3h-6.4c-0.8,0-1.3-0.5-1.3-1.3v-6.1c0-0.8,0.5-1.3,1.3-1.3h6.4
				c0.8,0,1.3,0.5,1.3,1.3V145.8z"/>
			<path class="st6" d="M106.3,145.8c0,0.8-0.5,1.3-1.3,1.3h-6.4c-0.8,0-1.3-0.5-1.3-1.3v-6.1c0-0.8,0.5-1.3,1.3-1.3h6.4
				c0.8,0,1.3,0.5,1.3,1.3V145.8z"/>
		</g>
		<g>
			<path class="st17" d="M61.5,157c0,0.8-0.5,1.3-1.3,1.3h-6.4c-0.8,0-1.3-0.5-1.3-1.3v-6.1c0-0.8,0.5-1.3,1.3-1.3h6.4
				c0.8,0,1.3,0.5,1.3,1.3V157z"/>
			<path class="st17" d="M72.5,157c0,0.8-0.5,1.3-1.3,1.3h-6.4c-0.8,0-1.3-0.5-1.3-1.3v-6.1c0-0.8,0.5-1.3,1.3-1.3h6.4
				c0.8,0,1.3,0.5,1.3,1.3V157z"/>
			<path class="st17" d="M83.8,157c0,0.8-0.5,1.3-1.3,1.3h-6.4c-0.8,0-1.3-0.5-1.3-1.3v-6.1c0-0.8,0.5-1.3,1.3-1.3h6.4
				c0.8,0,1.3,0.5,1.3,1.3V157L83.8,157z"/>
		</g>
		<g>
			<path class="st6" d="M95,157c0,0.8-0.5,1.3-1.3,1.3h-6.4c-0.8,0-1.3-0.5-1.3-1.3v-6.1c0-0.8,0.5-1.3,1.3-1.3h6.4
				c0.8,0,1.3,0.5,1.3,1.3V157z"/>
			<path class="st6" d="M106.3,157c0,0.8-0.5,1.3-1.3,1.3h-6.4c-0.8,0-1.3-0.5-1.3-1.3v-6.1c0-0.8,0.5-1.3,1.3-1.3h6.4
				c0.8,0,1.3,0.5,1.3,1.3V157z"/>
		</g>
		<g>
			<path class="st17" d="M61.5,168.3c0,0.8-0.5,1.3-1.3,1.3h-6.4c-0.8,0-1.3-0.5-1.3-1.3v-6.1c0-0.8,0.5-1.3,1.3-1.3h6.4
				c0.8,0,1.3,0.5,1.3,1.3V168.3z"/>
			<path class="st17" d="M72.5,168.3c0,0.8-0.5,1.3-1.3,1.3h-6.4c-0.8,0-1.3-0.5-1.3-1.3v-6.1c0-0.8,0.5-1.3,1.3-1.3h6.4
				c0.8,0,1.3,0.5,1.3,1.3V168.3z"/>
			<path class="st17" d="M83.8,168.3c0,0.8-0.5,1.3-1.3,1.3h-6.4c-0.8,0-1.3-0.5-1.3-1.3v-6.1c0-0.8,0.5-1.3,1.3-1.3h6.4
				c0.8,0,1.3,0.5,1.3,1.3V168.3L83.8,168.3z"/>
		</g>
		<path class="st6" d="M95,168.3c0,0.8-0.5,1.3-1.3,1.3h-6.4c-0.8,0-1.3-0.5-1.3-1.3v-6.1c0-0.8,0.5-1.3,1.3-1.3h6.4
			c0.8,0,1.3,0.5,1.3,1.3V168.3z"/>
		<g>
			<path class="st17" d="M61.5,179.5c0,0.8-0.5,1.3-1.3,1.3h-6.4c-0.8,0-1.3-0.5-1.3-1.3v-6.1c0-0.8,0.5-1.3,1.3-1.3h6.4
				c0.8,0,1.3,0.5,1.3,1.3V179.5z"/>
			<path class="st17" d="M72.5,179.5c0,0.8-0.5,1.3-1.3,1.3h-6.4c-0.8,0-1.3-0.5-1.3-1.3v-6.1c0-0.8,0.5-1.3,1.3-1.3h6.4
				c0.8,0,1.3,0.5,1.3,1.3V179.5z"/>
			<path class="st17" d="M83.8,179.5c0,0.8-0.5,1.3-1.3,1.3h-6.4c-0.8,0-1.3-0.5-1.3-1.3v-6.1c0-0.8,0.5-1.3,1.3-1.3h6.4
				c0.8,0,1.3,0.5,1.3,1.3V179.5L83.8,179.5z"/>
		</g>
		<g>
			<path class="st6" d="M95,179.5c0,0.8-0.5,1.3-1.3,1.3h-6.4c-0.8,0-1.3-0.5-1.3-1.3v-6.1c0-0.8,0.5-1.3,1.3-1.3h6.4
				c0.8,0,1.3,0.5,1.3,1.3V179.5z"/>
			<path class="st6" d="M98.3,160.8c-0.8,0-1.3,0.5-1.3,1.3v17.4c0,0.8,0.5,1.3,1.3,1.3h6.4c0.8,0,1.3-0.5,1.3-1.3v-17.4
				c0-0.8-0.5-1.3-1.3-1.3H98.3z"/>
		</g>
		<path class="st17" d="M90.4,113.8c-0.5,0-0.8,0.3-0.8,0.8v2.8c0,0.5,0.3,0.8,0.8,0.8h15.1c0.5,0,0.8-0.3,0.8-0.8v-2.8
			c0-0.5-0.3-0.8-0.8-0.8L90.4,113.8z"/>
		<path class="st17" d="M94.8,117.4v-2.8c0-0.5,0.3-0.8,0.8-0.8h-5.1c-0.5,0-0.8,0.3-0.8,0.8v2.8c0,0.5,0.3,0.8,0.8,0.8h5.1
			C95,118.1,94.8,117.9,94.8,117.4z"/>
		<path class="st18" d="M100.6,134h-2.5c-1.7,0-3.2-1.5-3.2-3.2v-5.4c0-1.7,1.5-3.2,3.2-3.2h2.5c1.7,0,3.2,1.5,3.2,3.2v5.4
			C103.6,132.5,102.1,134,100.6,134z M98.6,130.3h1.2v-4.2h-1.2V130.3z"/>
		<g>
			<circle class="st15" cx="52.3" cy="152.7" r="23"/>
			<circle class="st19" cx="52.3" cy="152.7" r="16.3"/>
			<path class="st11" d="M55,150.5h-4.6v-1.3H56c1.1,0,2.2-0.8,2.2-2.2c0-1.1-0.8-2.2-2.2-2.2h-1.6V144c0-1.1-0.8-2.2-2.2-2.2
				c-1.1,0-2.2,0.8-2.2,2.2v0.8h-0.8c-1.6,0-3,1.3-3,3v3.2c0,1.6,1.3,3,3,3h4.6v1.3h-5.7c-1.1,0-2.2,0.8-2.2,2.2
				c0,1.3,0.8,2.2,2.2,2.2h1.6v0.8c0,1.1,0.8,2.2,2.2,2.2c1.1,0,2.2-0.8,2.2-2.2v-0.5H55c1.6,0,3-1.3,3-3v-3.2
				C57.9,152.1,56.6,150.5,55,150.5z"/>
		</g>
	</g>
</g>
<g>
	<g>
		<path class="st10" d="M520.6,102.6c-15.1-11.1-35.8-18.1-58.2-18.1c-22.8,0-43.4,6.7-58.2,17.8c-15.1,11.1-24.5,26.9-24.5,44
			c0,13.4,5.4,25.5,14.8,35.5c9,9.8,21.5,17.1,36.3,21.8l-8.4,30.5c-0.3,1.5,0.6,2.9,2,3.4c0.9,0.3,2,0.1,2.7-0.7l26.5-28.8
			c1.3,0.3,2.7,0.4,4,0.4h5.4c22.6-0.1,43-6.8,57.7-17.8c15.1-11.1,24.5-26.9,24.5-44S535.7,113.7,520.6,102.6z"/>
		<g id="XMLID_1_">
			<g>
				<path class="st11" d="M539.4,146.6c0,15.4-8.4,29.5-22.2,39.6C503.1,196.6,484,203,462.5,203h-4.7c-1.7,0-3.4-0.4-5.1-0.4
					c-0.8,0-1.7,0.4-2.3,1l-19.1,21.1l6-21.8c0.3-1.5-0.6-2.9-2-3.4c-14.8-4.3-27.5-11.7-36.3-21.1c-8.4-9-13.4-20.1-13.4-31.8
					c0-15.4,8.5-29.5,22.2-39.6c14.1-10.4,33.1-16.8,54.6-16.8c21.5,0,40.7,6.4,54.8,16.8C530.9,117.1,539.4,131.2,539.4,146.6z"/>
			</g>
			<g>
			</g>
		</g>
	</g>
	<g>
		<g>
			<path class="st20" d="M462.4,188.2c-22.6,0-41.8-16.9-44.4-39.4c-0.1-1.2,0.8-2.2,1.9-2.3c1.1-0.1,2.1,0.7,2.3,1.8
				c2.5,22.1,22.6,37.9,44.7,35.4c18.1-2.1,32.3-15.9,35.2-33.9c0.3-1.1,1.4-1.8,2.5-1.6c1,0.2,1.7,1.2,1.6,2.2
				C503,172.2,484.4,188.2,462.4,188.2L462.4,188.2z"/>
			<polygon class="st20" points="428.1,156.6 420.4,149.9 413.6,157.6 413.2,151.4 420,143.7 427.7,150.5 			"/>
			<path class="st20" d="M504.5,140.9c-1.1,0-2-0.8-2.1-1.9c-2.5-22.1-22.6-37.9-44.7-35.4c-18.3,2.1-32.8,16.3-35.3,34.6
				c-0.2,1.1-1.4,1.9-2.5,1.6c-1-0.2-1.7-1.2-1.7-2.2c3.4-24.4,26.1-41.4,50.5-37.8c20,2.8,35.6,18.8,38,38.8
				c0.1,1.2-0.7,2.2-1.9,2.3H504.5z"/>
			<polygon class="st20" points="496.7,130.7 504.4,137.5 511.2,129.7 511.6,135.9 504.8,143.7 497.1,136.9 			"/>
		</g>
		<g>
			<g>
				<g>
					<g>
						<g>
							<g>
								<g>
									<path class="st21" d="M466.1,173.8h-7.5c-1.8,0-3.3-1.5-3.3-3.3v-4.4h14v4.4C469.4,172.4,467.9,173.8,466.1,173.8z"/>
									<path class="st22" d="M469.4,170h-13.9c-1,0-1.7-0.8-1.7-1.7v-11.9c0-1,0.8-1.7,1.7-1.7h13.9c1,0,1.7,0.8,1.7,1.7v11.9
										C471.1,169.2,470.3,170,469.4,170z"/>
									<path class="st23" d="M469.4,154.7h-4.8V170h4.8c1,0,1.7-0.8,1.7-1.7v-11.9C471.1,155.5,470.3,154.7,469.4,154.7z"/>
									<path class="st19" d="M481.8,132.9c0-10.7-8.7-19.4-19.4-19.4s-19.4,8.7-19.4,19.4c0,4,1.2,7.9,3.4,11.2
										c2.9,4.5,5.1,8,5.5,12.9c0.1,1.2,1.1,2.1,2.3,2.1h16.3c1.2,0,2.2-0.9,2.3-2.1c0.5-4.9,2.6-8.4,5.5-12.9
										C480.5,140.9,481.8,137,481.8,132.9z"/>
									<path class="st15" d="M462.4,113.6c-1.1,0-2.2,0.1-3.3,0.3c9.1,1.5,16.1,9.5,16.1,19.1c0,4-1.2,7.9-3.4,11.2
										c-3.3,5.1-5.6,8.9-5.6,15.1h4.3c1.2,0,2.2-0.9,2.3-2.1c0.5-4.9,2.6-8.4,5.5-12.9c2.1-3.3,3.4-7.1,3.4-11.2
										C481.8,122.2,473.1,113.6,462.4,113.6z"/>
								</g>
							</g>
						</g>
					</g>
					<path class="st11" d="M473.4,133.4h-0.8c-0.5,0-1-0.3-1.1-0.8c-0.2-0.6-0.4-1.2-0.8-1.8c-0.3-0.5-0.2-1,0.2-1.4l0.6-0.6
						c0.5-0.5,0.5-1.2,0-1.7l-1-1c-0.5-0.5-1.2-0.5-1.7,0l-0.6,0.6c-0.4,0.4-0.9,0.5-1.4,0.2c-0.6-0.3-1.2-0.6-1.8-0.8
						c-0.5-0.2-0.8-0.6-0.8-1.1v-0.8c0-0.7-0.5-1.2-1.2-1.2h-1.3c-0.7,0-1.2,0.5-1.2,1.2v0.7c0,0.5-0.3,1-0.9,1.1
						c-0.6,0.2-1.3,0.4-1.9,0.7c-0.5,0.2-1,0.2-1.4-0.2l-0.5-0.5c-0.5-0.5-1.2-0.5-1.7,0l-1,1c-0.5,0.5-0.5,1.2,0,1.7l0.5,0.5
						c0.4,0.4,0.5,0.9,0.2,1.4c-0.3,0.6-0.6,1.2-0.8,1.9c-0.2,0.5-0.6,0.8-1.1,0.8h-0.6c-0.7,0-1.2,0.5-1.2,1.2v1.3
						c0,0.7,0.5,1.2,1.2,1.2h0.6c0.5,0,1,0.3,1.1,0.8c0.2,0.7,0.5,1.3,0.8,2c0.3,0.5,0.2,1-0.2,1.4l-0.4,0.4c-0.5,0.5-0.5,1.2,0,1.7
						l1,1c0.5,0.5,1.2,0.5,1.7,0l0.4-0.4c0.4-0.4,0.9-0.5,1.4-0.2c0.6,0.3,1.3,0.6,2,0.8c0.5,0.1,0.8,0.6,0.8,1.1v0.6
						c0,0.7,0.5,1.2,1.2,1.2h1.3c0.7,0,1.2-0.5,1.2-1.2v-0.6c0-0.5,0.3-1,0.8-1.1c0.7-0.2,1.3-0.5,1.9-0.8c0.5-0.3,1-0.2,1.4,0.2
						l0.5,0.5c0.5,0.5,1.2,0.5,1.7,0l1-1c0.5-0.5,0.5-1.2,0-1.7l-0.5-0.5c-0.4-0.4-0.5-0.9-0.2-1.4c0.3-0.6,0.6-1.2,0.7-1.9
						c0.1-0.5,0.6-0.9,1.1-0.9h0.7c0.7,0,1.2-0.5,1.2-1.2v-1.3C474.6,133.9,474,133.4,473.4,133.4z M462.4,140.9
						c-3.2,0-5.7-2.6-5.7-5.7s2.6-5.7,5.7-5.7c3.2,0,5.7,2.6,5.7,5.7S465.6,140.9,462.4,140.9z"/>
				</g>
				<g>
					<rect x="453.7" y="161.8" class="st23" width="17.4" height="1.8"/>
					<rect x="453.7" y="165.3" class="st23" width="17.4" height="1.8"/>
				</g>
			</g>
		</g>
	</g>
</g>
<g>
	<g>
		<path class="st24" d="M174.3,285.6L174.3,285.6c-17,0-30.6-13.6-30.6-30.6v-19.9c0-15.8,12.6-28.4,28.4-28.4h4.5
			c15.8,0,28.4,12.6,28.4,28.4V255C204.6,271.8,191,285.6,174.3,285.6z"/>
		<path class="st25" d="M186.3,300.6H162c-16.8,0-30.2,13.4-30.2,30.2v29.2c0,1.2,1,2.4,2.4,2.4h80.1c1.2,0,2.4-1,2.4-2.4v-29.2
			C216.5,314,203.1,300.6,186.3,300.6z"/>
		<polygon class="st18" points="178,300.6 170.3,300.6 162.4,333.3 174.3,345.5 185.9,333.3 		"/>
		<path class="st15" d="M143.7,235.1h47.7c13.6,0,24.6-11,24.6-24.6v-9.9h-47.7c-13.6,0-24.6,11-24.6,24.6
			C143.7,225.1,143.7,235.1,143.7,235.1z"/>
	</g>
	<g>
		<circle class="st21" cx="397.3" cy="266.3" r="14.6"/>
		<path class="st24" d="M367.9,288.2L367.9,288.2c-16.4,0-29.4-13.2-29.4-29.4v-19.3c0-15.2,12.2-27.2,27.2-27.2h4.3
			c15.2,0,27.2,12.2,27.2,27.2v19.3C397.3,275.1,384.3,288.2,367.9,288.2z"/>
		<path class="st26" d="M379.5,302.7h-23.5c-16.2,0-29.2,13-29.2,29.2v28.2c0,1.2,1,2.4,2.4,2.4h76.9c1.2,0,2.4-1,2.4-2.4v-28.2
			C408.7,315.8,395.7,302.7,379.5,302.7z"/>
		<path class="st21" d="M397.3,239.6V259c-42-3.7-45.7-26.4-45.7-26.4v14.4h-13.2v-7.3c0-15.2,12.2-27.2,27.2-27.2h4.3
			C385.1,212.4,397.3,224.7,397.3,239.6z"/>
		<path class="st17" d="M385.7,303.3c-1.8-0.4-3.9-0.6-5.9-0.6h-23.5c-2,0-4.1,0.2-5.9,0.6c1.4,10.5,8.3,19.5,17.7,23.7
			C377.4,322.7,384.3,313.8,385.7,303.3z"/>
	</g>
	<g>
		<path class="st27" d="M290,304.9h-34.1c-6.5,0-12.4,0.2-17.7,3c-14.4,6.7-24.6,21.3-24.6,38.5v38.5c0,3.2,2.6,5.5,5.5,5.5h107.3
			c3.2,0,5.5-2.6,5.5-5.5v-38.5c0-17-9.9-31.6-24.5-38.5C302.4,305.1,296.3,304.9,290,304.9z"/>
		<path class="st28" d="M290,304.9h-8.7c8.7,0,17,2.4,23.1,8.1c8.7,7.7,14.2,19.9,14.2,33.3v38.5c0,3.2-2.4,5.5-4.9,5.5h12.6
			c3.2,0,5.5-2.6,5.5-5.5v-38.5c0-17-9.9-31.6-24.5-38.5C302.4,305.1,296.3,304.9,290,304.9z"/>
		<path class="st17" d="M273.1,371.2l34.7-63.5c-5.3-2.6-11.4-3.9-17.7-3.9h-34.1c-6.5,0-12.4,1.4-17.7,3.9L273.1,371.2z"/>
		<path class="st26" d="M279.2,319.5c6.1-2.6,10.5-8.5,10.5-15.6h-33.5c0,7.1,4.3,13,10.5,15.6l-5.5,30.4l11.8,21.3l11.8-21.3
			L279.2,319.5z"/>
		<path class="st24" d="M272.9,287.2L272.9,287.2c-21.9,0-39.6-17.7-39.6-39.6v-25.6c0-20.3,16.4-36.7,36.7-36.7h6.1
			c20.3,0,36.7,16.4,36.7,36.7v25.6C312.5,269.4,294.8,287.2,272.9,287.2z"/>
		<path class="st29" d="M275.8,185.2h-6.1c-0.2,0-0.4,0-0.6,0c16.4,0.4,29.4,13.6,29.4,30.2v39c0,17-12.8,30.8-29.4,32.5
			c1.2,0.2,2.6,0.2,3.7,0.2l0,0c21.9,0,39.6-17.7,39.6-39.6v-25.6C312.5,201.8,296.1,185.2,275.8,185.2z"/>
		<path class="st14" d="M275.8,185.2h-6.1c-20.1,0-36.5,16.2-36.7,36.1c6.9,7.5,17,13.8,24.6,16c-2-3.9-6.1-13.4-3.9-22.3
			c6.7,8.9,37.5,23.7,59,29v-21.9C312.5,201.8,296.1,185.2,275.8,185.2z"/>
		<path class="st21" d="M275.8,185.2h-6.1c-0.2,0-0.4,0-0.6,0c16.4,0.4,29.4,13.6,29.4,30.2v24.1c4.9,1.6,9.7,3.4,14,4.3v-21.9
			C312.5,201.8,296.1,185.2,275.8,185.2z"/>
	</g>
</g>
<g>
	<path class="st13" d="M310.7,343.2l-18,8.1l14.6,32.1l7.8-6.6l10.1-1.5L310.7,343.2z"/>
	<path class="st12" d="M297.4,343.6l18,8.1l-14.6,32.1l-7.8-6.6l-10.1-1.5L297.4,343.6L297.4,343.6z"/>
	<path class="st15" d="M327.3,347.5c0,1.7-2.5,3.2-2.8,4.8c-0.3,1.6,1.3,4,0.6,5.6c-0.7,1.6-3.6,1.7-4.6,3s-0.6,4.2-1.9,5.3
		s-3.9,0-5.4,0.7c-1.5,0.7-2.3,3.5-3.9,3.9c-1.6,0.4-3.5-1.8-5.1-1.8s-3.6,2.1-5.2,1.8c-1.6-0.3-2.4-3.2-3.9-3.9
		c-1.5-0.7-4.1,0.4-5.4-0.7s-0.8-4-1.9-5.3c-1.1-1.3-3.9-1.5-4.6-3c-0.7-1.5,0.9-3.9,0.6-5.6s-2.9-3.1-2.9-4.8s2.5-3.2,2.8-4.8
		s-1.3-4-0.6-5.6c0.7-1.6,3.6-1.7,4.6-3s0.6-4.2,1.9-5.3c1.3-1.1,3.9,0,5.4-0.7c1.5-0.7,2.3-3.5,3.9-3.9s3.5,1.8,5.1,1.8
		c1.6,0,3.6-2.1,5.2-1.8c1.6,0.3,2.4,3.2,3.9,3.9c1.5,0.7,4.1-0.4,5.4,0.7s0.8,4,1.9,5.3s3.9,1.5,4.6,3c0.7,1.5-0.9,3.9-0.6,5.6
		S327.3,345.8,327.3,347.5z"/>
	<path class="st30" d="M304,338.2c-5.1,0-9.3,4.2-9.3,9.3s4.2,9.3,9.3,9.3c5.1,0,9.3-4.2,9.3-9.3C313.3,342.3,309.2,338.2,304,338.2
		L304,338.2z M304,351.6c-2.3,0-4.2-1.9-4.2-4.2c0-2.3,1.9-4.2,4.2-4.2s4.2,1.9,4.2,4.2l0,0C308.2,349.8,306.4,351.6,304,351.6
		C304,351.7,304,351.7,304,351.6z M304,330.6c-9.2,0-16.8,7.5-16.8,16.8s7.5,16.8,16.8,16.8c9.2,0,16.8-7.5,16.8-16.8
		S313.3,330.7,304,330.6L304,330.6z M304,361.5c-7.7,0-14-6.2-14-14c0-7.7,6.2-14,14-14c7.7,0,14,6.2,14,14l0,0
		C318.1,355.2,311.7,361.5,304,361.5L304,361.5z"/>
</g>
</svg>
