<?xml version="1.0" encoding="utf-8"?>
<!-- Generator: Adobe Illustrator 22.0.1, SVG Export Plug-In . SVG Version: 6.00 Build 0)  -->
<svg version="1.1" id="Layer_1" xmlns="http://www.w3.org/2000/svg" xmlns:xlink="http://www.w3.org/1999/xlink" x="0px" y="0px"
	 viewBox="0 0 960 310" style="enable-background:new 0 0 960 310;" xml:space="preserve">
<style type="text/css">
	.st0{fill:#034A6D;}
	.st1{fill:#EFFAFF;}
	.st2{fill:#FEFFFE;}
	.st3{fill:#74B2E8;}
	.st4{fill:#FBB040;}
	.st5{fill:#ACD5F4;}
	.st6{fill:#E7E7E7;}
	.st7{fill:#F5A707;}
	.st8{fill:#71BE71;}
	.st9{fill:none;stroke:#0062A1;stroke-width:2.9;stroke-miterlimit:10;stroke-dasharray:6,4;}
	.st10{fill:#BDBFC1;}
	.st11{fill:#FFFFFF;}
	.st12{opacity:0.2;fill:#034A6D;enable-background:new    ;}
	.st13{fill:#FFFDFE;}
	.st14{fill:#F2F0F0;}
	.st15{fill:#8EABAF;}
	.st16{fill:#CCCCC7;}
	.st17{fill:#FBBC40;}
	.st18{fill:none;stroke:#0062A1;stroke-width:2.9;stroke-linecap:round;stroke-linejoin:round;stroke-miterlimit:10;}
	.st19{fill:none;stroke:#FBBC40;stroke-width:6;stroke-linecap:round;stroke-linejoin:round;stroke-miterlimit:10;}
	.st20{fill:#F58620;}
	.st21{fill:#013F53;}
	.st22{fill:none;stroke:#FFFFFF;stroke-miterlimit:10;}
	.st23{fill:#0062A1;stroke:#0062A1;stroke-width:2.9;stroke-linecap:round;stroke-linejoin:round;stroke-miterlimit:10;}
	.st24{fill:none;stroke:#FFFFFF;stroke-width:3;stroke-linecap:round;stroke-linejoin:round;stroke-miterlimit:10;}
	.st25{opacity:0.1;}
	.st26{fill:#74B2E8;stroke:#034A6D;stroke-width:2.9;stroke-linecap:round;stroke-linejoin:round;stroke-miterlimit:10;}
	.st27{fill:#D7F0F9;}
	.st28{fill:#0062A1;}
	.st29{fill:#BEBFC1;}
	.st30{fill:none;stroke:#0062A1;stroke-width:1.5;stroke-linecap:round;stroke-linejoin:round;stroke-miterlimit:10;}
	.st31{display:none;}
	.st32{display:inline;fill:#74B2E8;}
	.st33{display:inline;fill:#FFFFFF;}
	.st34{display:inline;fill:#FBB040;}
	.st35{display:inline;fill:#E04037;}
	.st36{display:inline;fill:#E7E7E7;}
	.st37{display:inline;fill:#F5A707;}
	.st38{display:inline;fill:#EFFAFF;}
	.st39{display:inline;fill:none;stroke:#FFFFFF;stroke-miterlimit:10;}
	.st40{fill:none;stroke:#74B2E8;stroke-width:2.9;stroke-miterlimit:10;}
	.st41{fill:none;stroke:#034A6D;stroke-width:2.9;stroke-miterlimit:10;}
	.st42{fill:none;stroke:#0062A1;stroke-width:2.9;stroke-miterlimit:10;}
	.st43{fill:none;stroke:#FBB040;stroke-width:2.9;stroke-miterlimit:10;}
	.st44{fill:none;stroke:#0062A1;stroke-width:2.9;stroke-miterlimit:10;stroke-dasharray:6.3604,4.2402;}
	.st45{fill:none;stroke:#0062A1;stroke-width:2.9;stroke-miterlimit:10;stroke-dasharray:4.022,2.6813;}
</style>
<g>
	<path class="st0" d="M856.4,301.1H606.5c-4.8,0-8.6-3.9-8.6-8.6V122.3c0-4.8,3.9-8.6,8.6-8.6h249.9c4.8,0,8.6,3.9,8.6,8.6v170.1
		C865,297.2,861.2,301.1,856.4,301.1z"/>
	<rect x="608.2" y="124.8" class="st1" width="246.4" height="157.4"/>
	<rect x="626.4" y="133.6" class="st2" width="210.2" height="139.9"/>
	<rect x="634.1" y="141.6" class="st3" width="35.6" height="8.8"/>
	<rect x="634.1" y="209.1" class="st3" width="47" height="43.5"/>
	<rect x="708" y="209.1" class="st4" width="47" height="43.5"/>
	<rect x="781.8" y="209.1" class="st5" width="47" height="43.5"/>
	<rect x="805.9" y="141.6" class="st6" width="22.9" height="4"/>
	<rect x="778" y="141.6" class="st6" width="22.9" height="4"/>
	<rect x="750.2" y="141.6" class="st7" width="22.9" height="4"/>
	<rect x="722.3" y="141.6" class="st6" width="22.9" height="4"/>
	<rect x="634.1" y="261.5" class="st6" width="194.6" height="4"/>
	<rect x="634.1" y="261.5" class="st8" width="42.5" height="4"/>
	<rect x="634.1" y="160.2" class="st9" width="194.6" height="37.6"/>
	<path class="st6" d="M750.2,292.6c-1.2,2.5-3.7,4.2-6.6,4.2h-34.2c-2.9,0-5.4-1.7-6.6-4.2H570.1v9.7h312.7v-9.7H750.2z"/>
	<path class="st10" d="M570.1,302.7L570.1,302.7c12.9,4.6,26.4,7,40.1,7h232.6c13.7,0,27.2-2.4,40.1-7l0,0H570.1z"/>
	<rect x="639.8" y="214.9" class="st11" width="35.6" height="8.8"/>
	<rect x="639.8" y="241.4" class="st11" width="12.8" height="5.7"/>
	<rect x="713.7" y="241.4" class="st11" width="12.8" height="5.7"/>
	<rect x="787.5" y="241.4" class="st11" width="12.8" height="5.7"/>
	<rect x="713.7" y="214.9" class="st11" width="35.6" height="8.8"/>
	<rect x="787.5" y="214.9" class="st11" width="35.6" height="8.8"/>
</g>
<g>
	<path class="st12" d="M607,113.7c-5,0-9.1,4.1-9.1,9.1v141.4h6.7c5,0,9.1-4.1,9.1-9.1V113.7H607z"/>
	<path class="st0" d="M601,260H268.6c-4.8,0-8.6-3.9-8.6-8.6V8.6c0-4.8,3.9-8.6,8.6-8.6H601c4.8,0,8.6,3.9,8.6,8.6v242.8
		C609.7,256.2,605.8,260,601,260z"/>
	<rect x="274" y="12.1" class="st1" width="321.6" height="211.5"/>
	<rect x="290.9" y="34.6" class="st13" width="287.8" height="166.5"/>
	<path class="st14" d="M601,260H268.6c-4.8,0-8.6-3.9-8.6-8.6v-15.6h349.7v15.6C609.7,256.2,605.8,260,601,260z"/>
	<rect x="305.9" y="130" class="st3" width="62.2" height="57.6"/>
	<rect x="403.7" y="130" class="st4" width="62.2" height="57.6"/>
	<rect x="501.5" y="130" class="st5" width="62.2" height="57.6"/>
	<rect x="313.4" y="137.7" class="st11" width="47.1" height="11.6"/>
	<rect x="313.4" y="172.7" class="st11" width="17" height="7.6"/>
	<rect x="411.3" y="172.7" class="st11" width="17" height="7.6"/>
	<rect x="509.1" y="172.7" class="st11" width="17" height="7.6"/>
	<rect x="411.3" y="137.7" class="st11" width="47.1" height="11.6"/>
	<rect x="509.1" y="137.7" class="st11" width="47.1" height="11.6"/>
	<rect x="533.4" y="46.9" class="st6" width="30.3" height="5.3"/>
	<rect x="496.5" y="46.9" class="st6" width="30.3" height="5.3"/>
	<rect x="459.6" y="46.9" class="st7" width="30.3" height="5.3"/>
	<rect x="422.7" y="46.9" class="st6" width="30.3" height="5.3"/>
	<path class="st6" d="M474.9,260h-40.1h-40.1c0,0,3.7,34-22.4,43.5c0,2.6,0,6.5,0,6.5h62.5h62.5c0,0,0-3.8,0-6.5
		C471.2,294,474.9,260,474.9,260z"/>
	<path class="st10" d="M474.7,265.7c-0.1-3.5,0.2-5.7,0.2-5.7h-40.1h-40.1c0,0,0.2,2.2,0.2,5.7H474.7z"/>
	<path class="st14" d="M434.8,310h62.5c0,0,0-3.8,0-6.5h-125c0,2.6,0,6.5,0,6.5H434.8z"/>
	<rect x="290.9" y="18.4" class="st3" width="34.4" height="8.5"/>
</g>
<g>
	<rect x="851.5" y="50" class="st15" width="8.9" height="28"/>
	<rect x="853.7" y="50" class="st16" width="4.4" height="28"/>
	<path class="st3" d="M655.2,35.6v28.7h235.5V35.6H655.2z M664.9,51.6c-2.6,0-4.7-2.1-4.7-4.7c0-2.6,2.1-4.7,4.7-4.7
		s4.7,2.1,4.7,4.7C669.6,49.5,667.5,51.6,664.9,51.6z"/>
	<circle class="st17" cx="855.9" cy="79.1" r="7.3"/>
	<line class="st18" x1="867" y1="123.6" x2="914.4" y2="147.1"/>
	<path class="st19" d="M866.1,120.3c-2.8,2.2-6.4,3.5-10.2,3.5c-9.2,0-16.7-7.5-16.7-16.7s7.5-16.7,16.7-16.7V81"/>
	<polyline class="st18" points="784.9,158.8 856,118.1 859.9,120.1 	"/>
	<rect x="690.7" y="23.3" class="st20" width="29.4" height="90.4"/>
	<polygon class="st14" points="720.1,23.3 690.7,23.3 705.4,0 705.4,0 	"/>
	<rect x="699.6" y="23.3" class="st7" width="11.7" height="90.4"/>
	<polygon class="st21" points="713.5,12.9 705.4,0 697.3,12.9 	"/>
	<line class="st22" x1="671" y1="64.4" x2="671" y2="57.4"/>
	<line class="st22" x1="686.7" y1="64.4" x2="686.7" y2="57.4"/>
	<line class="st22" x1="733.7" y1="64.4" x2="733.7" y2="57.4"/>
	<line class="st22" x1="749.4" y1="64.4" x2="749.4" y2="57.4"/>
	<line class="st22" x1="765.1" y1="64.4" x2="765.1" y2="57.4"/>
	<line class="st22" x1="780.8" y1="64.4" x2="780.8" y2="57.4"/>
	<line class="st22" x1="796.4" y1="64.4" x2="796.4" y2="57.4"/>
	<line class="st22" x1="812.1" y1="64.4" x2="812.1" y2="57.4"/>
	<line class="st22" x1="827.8" y1="64.4" x2="827.8" y2="57.4"/>
	<line class="st22" x1="843.5" y1="64.4" x2="843.5" y2="57.4"/>
	<line class="st22" x1="859.1" y1="64.4" x2="859.1" y2="57.4"/>
	<line class="st22" x1="874.8" y1="64.4" x2="874.8" y2="57.4"/>
	<polygon class="st23" points="954.5,183.9 763.8,201.1 761.3,160.9 952,143.7 	"/>
	<polyline class="st24" points="851.8,182.2 836.5,175.9 850.1,166.5 	"/>
	<polyline class="st24" points="863.5,181.3 877.1,171.9 861.9,165.6 	"/>
	<line class="st24" x1="857.7" y1="160.3" x2="856.1" y2="187.4"/>
	<g class="st25">
		<path class="st26" d="M952,143.7l-65.5,20"/>
		<path class="st26" d="M887.6,175.9l66.8,8"/>
		<path class="st26" d="M763.8,201.1l65.5-20"/>
		<path class="st26" d="M828.2,168.9l-66.8-8"/>
	</g>
</g>
<g>
	<path class="st11" d="M56.8,116.6c-32.9,0-59.7-26.9-59.7-59.7S24-2.8,56.8-2.8s59.7,26.9,59.7,59.7S89.8,116.6,56.8,116.6z"/>
	<circle class="st1" cx="56.8" cy="56.8" r="52.8"/>
	<path class="st27" d="M14.3,56.8c0-27.4,20.9-50,47.7-52.6C60.4,4,58.5,4,56.9,4C27.7,4,4.1,27.6,4.1,56.8s23.6,52.8,52.8,52.8
		c1.8,0,3.5,0,5.1-0.2C35.3,106.9,14.3,84.2,14.3,56.8z"/>
	<path class="st3" d="M113.6,56.8c0-31.3-25.4-56.7-56.7-56.7S0.2,25.5,0.2,56.8c0,31.1,25,56.3,56.1,56.7c0.2,0,0.4,0,0.6,0
		c0.2,0,0.4,0,0.6,0C88.5,113.1,113.6,88,113.6,56.8z M8,60.7h18.1c0.2,7.1,1.2,13.6,2.6,19.7c-4.4,1-8.8,2.5-12.5,3.9
		C11.9,77.5,8.8,69.3,8,60.7z M16.5,29.2c3.7,1.6,7.9,2.8,12.5,3.9c-1.4,6.1-2.5,12.6-2.6,19.7H8.3C8.8,44.1,11.9,36,16.5,29.2z
		 M105.7,52.9H87.4c-0.2-7.1-1.2-13.6-2.6-19.7c4.4-1,8.8-2.5,12.5-3.9C101.8,36,105,44.1,105.7,52.9z M79.8,52.9H60.9V36
		c5.7-0.2,11.2-0.6,16.5-1.4C78.6,40.1,79.5,46.3,79.8,52.9z M60.8,28.4V8.7C66.1,11,71.4,17.5,75,27.2
		C70.3,27.7,65.7,28.1,60.8,28.4z M52.9,8.6v19.7c-4.9-0.2-9.7-0.6-14.2-1.2C42.3,17.4,47.6,10.9,52.9,8.6z M52.9,36v16.9H34
		c0.2-6.7,1-12.8,2.5-18.3C41.8,35.5,47.2,36,52.9,36z M34,60.7h18.9v16.9c-5.7,0.2-11.2,0.6-16.5,1.4C35.3,73.5,34.2,67.4,34,60.7z
		 M52.9,85.3V105c-5.3-2.3-10.6-8.8-14.2-18.5C43.4,85.8,48,85.5,52.9,85.3z M60.8,105V85.3c4.9,0.2,9.7,0.6,14.2,1.2
		C71.4,96.3,66.1,102.8,60.8,105z M60.8,77.5V60.7h18.9c-0.2,6.7-1,12.8-2.5,18.3C72.1,78.2,66.5,77.5,60.8,77.5z M87.4,60.7h18.1
		c-0.6,8.8-3.7,16.9-8.3,23.6c-3.7-1.6-7.9-2.8-12.5-3.9C86.5,74.2,87.2,67.7,87.4,60.7z M92.1,22.8c-2.8,1-6.1,2.1-9.5,2.8
		c-1.8-5.5-4.2-10.2-7.1-14.1C82,14.1,87.4,17.9,92.1,22.8z M38.1,11.4c-2.8,3.9-5.1,8.8-7.1,14.1c-3.5-0.9-6.5-1.6-9.5-2.8
		C26.3,17.9,31.8,14.1,38.1,11.4z M21.6,90.7c2.8-1,6.1-2.1,9.5-2.8c1.8,5.5,4.2,10.2,7.1,14.1C31.8,99.3,26.3,95.5,21.6,90.7z
		 M75.6,102c2.8-3.9,5.1-8.8,7.1-14.1c3.5,0.9,6.5,1.6,9.5,2.8C87.4,95.5,82,99.3,75.6,102z"/>
</g>
<g>
	<path class="st28" d="M150.1,111c0,0,25.9,24.3,12.7,69.2c-14.7-25.3-28.2-36.6-28.2-36.6l-20.9-3.9L150.1,111z"/>
	<path class="st28" d="M77.3,111c0,0-25.9,24.3-12.7,69.2c14.7-25.3,28.2-36.6,28.2-36.6l20.9-3.9L77.3,111z"/>
	<path class="st1" d="M197.3,279.7c-4.3,0-8.2,1.8-11,4.7c-1.7-9.6-10-17-20.2-17c-4.2,0-8,1.2-11.3,3.4c-0.5-8.3-6-15.3-13.6-17.9
		c-1.1-5.2-5.7-9.1-11.1-9.1c-1.6,0-3.2,0.3-4.6,1v-40.4h-24V248c-4.7,0-8.6,3.8-8.6,8.6c0,1.1,0.2,2.1,0.6,3
		c-2.9,0.6-5.3,2.7-6.2,5.4c-1.5-0.5-3.2-0.8-4.9-0.8c-7.2,0-13.1,5-14.6,11.7c-1-0.2-2.1-0.4-3.2-0.4c-5.6,0-10.3,3.3-12.5,8.1
		c-2.8-7.2-9.8-12.3-18-12.3c-10.7,0-19.4,8.7-19.4,19.4c0,10.7,8.7,19.4,19.4,19.4h163.2c8.4,0,15.2-6.8,15.2-15.2
		S205.7,279.7,197.3,279.7z"/>
	<path class="st4" d="M129.1,160c10.8-16.6,23.3-42.1,23.3-70.9c0-50.6-38.7-82.7-38.7-82.7S75,38.6,75,89.2
		c0,28.8,12.5,54.2,23.3,70.9h30.8V160z"/>
	<path class="st20" d="M129.1,160c10.8-16.6,23.3-42.1,23.3-70.9c0-50.6-38.7-82.7-38.7-82.7V160H129.1z"/>
	<path class="st11" d="M129.1,160c10.8-16.6,23.3-42.1,23.3-70.9c0-21.6-7.1-39.9-15.2-53.7H90.1C82,49.2,74.9,67.5,74.9,89.1
		c0,28.8,12.5,54.2,23.3,70.9H129.1z"/>
	<path class="st6" d="M129.1,160c10.8-16.6,23.3-42.1,23.3-70.9c0-21.6-7.1-39.9-15.2-53.7h-23.5V160H129.1z"/>
	<circle class="st29" cx="113.7" cy="73.9" r="22.5"/>
	<circle class="st3" cx="113.7" cy="73.9" r="17"/>
	<path class="st5" d="M113.7,60.2c-7.6,0-13.7,6.2-13.7,13.7c0,4.1,1.8,7.9,4.7,10.4l19.4-19.4C121.5,62,117.8,60.2,113.7,60.2z"/>
	<rect x="98.3" y="160" class="st10" width="30.8" height="5.3"/>
	<path class="st4" d="M129.1,165.3c-6.1,0-15.4,0-15.4,0s-9.3,0-15.4,0c-14.2,43.1,15.4,70.9,15.4,70.9S143.3,208.4,129.1,165.3z"/>
	<path class="st20" d="M125.3,165.3h-11.7H102c0,0-3.4,34.7,11.7,48.2c0-0.5,0-0.5,0,0C128.7,200,125.3,165.3,125.3,165.3z"/>
	<path class="st28" d="M119,115.3l-5.3-8.2l-5.3,8.2c0,0-1.2,43.5,5.3,64.9c0-2.2,0-2.2,0,0C120.2,158.8,119,115.3,119,115.3z"/>
</g>
<g>
	<polygon class="st28" points="463,173.4 445.7,167.2 452.1,184.4 455.2,179.3 460.6,184.6 463.3,181.9 457.9,176.6 	"/>
	<path class="st30" d="M457.9,169.4c0.7-3.9-0.4-8.1-3.4-11.1c-4.9-4.9-12.8-4.9-17.6,0c-4.9,4.9-4.9,12.8,0,17.6
		c3,3,7.2,4.2,11.1,3.4"/>
	<path class="st30" d="M453.8,167.9c0.2-2.3-0.6-4.7-2.4-6.5c-3.2-3.2-8.4-3.2-11.5,0c-3.2,3.2-3.2,8.4,0,11.5
		c1.8,1.8,4.2,2.6,6.5,2.4"/>
	<path class="st30" d="M449.4,166.3c-0.2-0.7-0.5-1.3-1-1.8c-1.5-1.5-3.9-1.5-5.4,0s-1.5,3.9,0,5.4c0.5,0.5,1.2,0.9,1.8,1"/>
</g>
<g>
	<g>
		<rect x="920.4" y="70.1" class="st5" width="2.7" height="12.7"/>
	</g>
	<g>
		
			<rect x="908.1" y="86.3" transform="matrix(0.8426 -0.5385 0.5385 0.8426 96.824 506.6077)" class="st5" width="14.1" height="2.7"/>
	</g>
	<g>
		
			<rect x="927.2" y="80.6" transform="matrix(0.5385 -0.8426 0.8426 0.5385 354.672 822.8317)" class="st5" width="2.7" height="14.1"/>
	</g>
	<g>
		<path class="st5" d="M921.7,43.4c-7.8,0-14.1,6.3-14.1,14.1s6.3,14.1,14.1,14.1s14.1-6.3,14.1-14.1S929.5,43.4,921.7,43.4z
			 M921.8,48.7c2,0,3.5,1.6,3.5,3.6c0,1.9-1.6,3.5-3.5,3.5s-3.6-1.6-3.6-3.5C918.2,50.3,919.8,48.7,921.8,48.7z M928.3,64.3
			c-7.3,4.1-13,0-13,0v-0.9c0-3.6,2.9-6.5,6.5-6.5s6.5,2.9,6.5,6.5C928.3,64.3,928.3,64.3,928.3,64.3z"/>
	</g>
	<g>
		<path class="st5" d="M897,83.8c-7.8,0-14.1,6.3-14.1,14.1S889.2,112,897,112s14.1-6.3,14.1-14.1C911,90.1,904.7,83.8,897,83.8z
			 M897.6,89.1c2,0,3.5,1.6,3.5,3.6c0,1.9-1.6,3.5-3.5,3.5c-2,0-3.6-1.6-3.6-3.5C894,90.8,895.7,89.1,897.6,89.1z M904.1,104.7
			c-7.3,4.1-13,0-13,0v-0.9c0-3.6,2.9-6.5,6.5-6.5s6.5,2.9,6.5,6.5C904.1,104.7,904.1,104.7,904.1,104.7z"/>
	</g>
	<g>
		<path class="st5" d="M946.5,83.8c-7.8,0-14.1,6.3-14.1,14.1s6.3,14.1,14.1,14.1s14.1-6.3,14.1-14.1
			C960.5,90.1,954.2,83.8,946.5,83.8z M947,89.1c2,0,3.5,1.6,3.5,3.6c0,1.9-1.5,3.5-3.5,3.5s-3.6-1.6-3.6-3.5
			C943.4,90.8,945,89.1,947,89.1z M953.5,104.7c-7.3,4.1-13,0-13,0v-0.9c0-3.6,2.9-6.5,6.5-6.5s6.5,2.9,6.5,6.5
			C953.5,104.7,953.5,104.7,953.5,104.7z"/>
	</g>
	<g>
		<circle class="st5" cx="921.7" cy="84.2" r="4.7"/>
	</g>
</g>
<rect x="304.2" y="61.4" class="st3" width="259.5" height="43.2"/>
<g>
	<g>
		<path class="st13" d="M395.7,93.4L384,85.1v-2.8l11.7-9.5v4.5l-8.1,5.9l8.1,5.3V93.4z"/>
		<path class="st13" d="M406.2,74c-1.4,0-2.4,0.8-3.2,2.6c-0.8,1.6-1.2,4-1.2,6.9c0,6.1,1.4,9.3,4.3,9.3c1.2,0,2.6-0.4,4.3-1.4v4.9
			c-1.4,1-3,1.4-4.7,1.4c-2.6,0-4.3-1.2-5.7-3.8c-1.4-2.4-2-5.9-2-10.5c0-3,0.4-5.3,1-7.5c0.6-2.2,1.6-3.8,2.8-4.9
			c1.2-1.2,2.6-1.8,4.3-1.8c1.6,0,3.4,0.6,4.9,2l-1.2,4.7c-0.6-0.4-1.4-1-2-1.4C407.3,74.2,406.7,74,406.2,74z"/>
		<path class="st13" d="M429.7,83.5c0,4.5-0.8,8.1-2.2,10.7c-1.4,2.4-3.4,3.8-6.1,3.8c-2.6,0-4.7-1.2-6.1-3.8
			c-1.4-2.4-2.2-5.9-2.2-10.7s0.8-8.1,2.2-10.5c1.4-2.4,3.4-3.6,6.1-3.6c2.6,0,4.7,1.2,6.1,3.8C429.1,75.2,429.7,78.8,429.7,83.5z
			 M417.2,83.5c0,3.2,0.4,5.3,1.2,6.9c0.8,1.6,1.8,2.4,3.4,2.4c3,0,4.3-3.2,4.3-9.3c0-6.3-1.4-9.3-4.3-9.3c-1.4,0-2.6,0.8-3.4,2.4
			C417.6,78,417.2,80.4,417.2,83.5z"/>
		<path class="st13" d="M447.5,83.1c0,4.5-0.8,8.1-2.4,10.5c-1.6,2.4-4,3.6-6.9,3.6h-4.9V69.5h5.3c2.8,0,4.9,1.2,6.5,3.6
			C446.7,75.6,447.5,79,447.5,83.1z M443.7,83.3c0-5.9-1.6-8.9-4.9-8.9h-2v18h1.6C441.9,92.4,443.7,89.5,443.7,83.3z"/>
		<path class="st13" d="M460.9,97.4H451V69.7h9.9v4.7h-6.3v6.1h5.7v4.7h-5.7v7.1h6.3L460.9,97.4L460.9,97.4z"/>
		<path class="st13" d="M472.2,69.7l-6.3,27.7h-3.2l6.3-27.7H472.2z"/>
		<path class="st13" d="M473.3,88.9l8.1-5.3l-8.1-5.9v-4.5l11.7,9.5v2.8l-11.7,8.3V88.9z"/>
	</g>
</g>
<g>
	<path class="st12" d="M273.8,125.2H260V251c0,5,4.1,9.1,9.1,9.1h12.3V132.8C281.4,128.6,278,125.2,273.8,125.2z"/>
	<path class="st0" d="M271.4,284.4h-72.9c-4,0-7.3-3.2-7.3-7.3V134.9c0-4,3.2-7.3,7.3-7.3h72.9c4,0,7.3,3.2,7.3,7.3v142.2
		C278.7,281.1,275.4,284.4,271.4,284.4z"/>
	<rect x="198.1" y="140.3" class="st13" width="73.7" height="118.3"/>
	<circle class="st11" cx="235.1" cy="271.1" r="5.7"/>
	<path class="st11" d="M244.2,135.7h-18c-0.8,0-1.5-0.7-1.5-1.5v-0.6c0-0.8,0.7-1.5,1.5-1.5h18c0.8,0,1.5,0.7,1.5,1.5v0.6
		C245.7,135.1,245,135.7,244.2,135.7z"/>
	<g class="st31">
		<rect x="123.5" y="147.6" class="st32" width="21.4" height="5.5"/>
		<rect x="123.5" y="207.4" class="st32" width="59.3" height="9.2"/>
		<rect x="142.2" y="209.8" class="st33" width="36.9" height="4.3"/>
		<rect x="127.2" y="209.8" class="st33" width="10.4" height="4.3"/>
		<rect x="123.5" y="223.7" class="st34" width="59.3" height="9.2"/>
		<rect x="142.2" y="226.1" class="st33" width="36.9" height="4.3"/>
		<rect x="127.2" y="226.1" class="st33" width="10.4" height="4.3"/>
		<rect x="123.5" y="240" class="st35" width="59.3" height="9.2"/>
		<rect x="142.2" y="242.4" class="st33" width="36.9" height="4.3"/>
		<rect x="127.2" y="242.4" class="st33" width="10.4" height="4.3"/>
		<rect x="123.5" y="156.6" class="st36" width="15.5" height="5.5"/>
		<rect x="139" y="156.6" class="st37" width="15.5" height="5.5"/>
		<rect x="154.5" y="156.6" class="st36" width="15.5" height="5.5"/>
		<rect x="170" y="156.6" class="st36" width="15.5" height="5.5"/>
		<rect x="123.6" y="164.9" class="st38" width="61.8" height="35.9"/>
		<line class="st39" x1="123.6" y1="164.9" x2="185.5" y2="200.8"/>
		<line class="st39" x1="185.5" y1="164.9" x2="123.6" y2="200.8"/>
	</g>
	<g>
		<line class="st40" x1="204.7" y1="149.5" x2="265.8" y2="149.5"/>
		<line class="st41" x1="211.7" y1="159.5" x2="225.6" y2="159.5"/>
		<line class="st41" x1="211.7" y1="169.4" x2="225.6" y2="169.4"/>
		<line class="st41" x1="211.7" y1="179.3" x2="225.6" y2="179.3"/>
		<line class="st42" x1="231.6" y1="159.5" x2="241.5" y2="159.5"/>
		<line class="st42" x1="231.6" y1="169.4" x2="241.5" y2="169.4"/>
		<line class="st42" x1="231.6" y1="179.3" x2="241.5" y2="179.3"/>
		<line class="st43" x1="245.7" y1="159.5" x2="248.3" y2="159.5"/>
		<line class="st43" x1="245.7" y1="169.4" x2="248.3" y2="169.4"/>
		<line class="st43" x1="245.7" y1="179.3" x2="248.3" y2="179.3"/>
		<line class="st43" x1="205" y1="159.5" x2="207.6" y2="159.5"/>
		<line class="st43" x1="205" y1="169.4" x2="207.6" y2="169.4"/>
		<line class="st43" x1="205" y1="179.3" x2="207.6" y2="179.3"/>
		<line class="st41" x1="211.7" y1="199.2" x2="233.2" y2="199.2"/>
		<line class="st42" x1="239.2" y1="199.2" x2="251.6" y2="199.2"/>
		<line class="st43" x1="255.9" y1="199.2" x2="258.5" y2="199.2"/>
		<line class="st42" x1="240.5" y1="219.1" x2="265.6" y2="219.1"/>
		<line class="st43" x1="205" y1="199.2" x2="207.6" y2="199.2"/>
		<line class="st41" x1="211.7" y1="239" x2="233.2" y2="239"/>
		<line class="st42" x1="205" y1="239" x2="207.6" y2="239"/>
		<line class="st42" x1="237.3" y1="239" x2="240" y2="239"/>
		<line class="st43" x1="223.1" y1="229" x2="225.7" y2="229"/>
		<line class="st41" x1="223.1" y1="209.1" x2="235.7" y2="209.1"/>
		<line class="st43" x1="240.5" y1="209.1" x2="265.8" y2="209.1"/>
		<line class="st40" x1="204.7" y1="189.3" x2="265.6" y2="189.3"/>
		<line class="st40" x1="204.7" y1="249" x2="265.6" y2="249"/>
	</g>
	<g>
		<rect x="169.3" y="93.4" class="st42" width="15.4" height="15.4"/>
		<rect x="169.3" y="293.1" class="st42" width="15.4" height="15.4"/>
		<rect x="368.9" y="93.4" class="st42" width="15.4" height="15.4"/>
		<rect x="368.9" y="293.1" class="st42" width="15.4" height="15.4"/>
		<rect x="169.3" y="193.2" class="st42" width="15.4" height="15.4"/>
		<rect x="368.9" y="193.2" class="st42" width="15.4" height="15.4"/>
		<rect x="269.1" y="293.1" class="st42" width="15.4" height="15.4"/>
		<rect x="269.1" y="93.4" class="st42" width="15.4" height="15.4"/>
		<g>
			<g>
				<polyline class="st42" points="373.6,193.2 376.6,193.2 376.6,190.2 				"/>
				<line class="st44" x1="376.6" y1="186" x2="376.6" y2="113.9"/>
				<polyline class="st42" points="376.6,111.8 376.6,108.8 373.6,108.8 				"/>
				<polyline class="st42" points="371.9,108.8 368.9,108.8 368.9,105.8 				"/>
				<polyline class="st42" points="368.9,104.1 368.9,101.1 365.9,101.1 				"/>
				<line class="st44" x1="361.7" y1="101.1" x2="289.6" y2="101.1"/>
				<polyline class="st42" points="287.5,101.1 284.5,101.1 284.5,104.1 				"/>
				<polyline class="st42" points="284.5,105.8 284.5,108.8 281.5,108.8 				"/>
				<line class="st45" x1="278.8" y1="108.8" x2="273.5" y2="108.8"/>
				<polyline class="st42" points="272.1,108.8 269.1,108.8 269.1,105.8 				"/>
				<polyline class="st42" points="269.1,104.1 269.1,101.1 266.1,101.1 				"/>
				<line class="st44" x1="261.9" y1="101.1" x2="189.8" y2="101.1"/>
				<polyline class="st42" points="187.7,101.1 184.7,101.1 184.7,104.1 				"/>
				<polyline class="st42" points="184.7,105.8 184.7,108.8 181.7,108.8 				"/>
				<polyline class="st42" points="180,108.8 177,108.8 177,111.8 				"/>
				<line class="st44" x1="177" y1="116" x2="177" y2="188.1"/>
				<polyline class="st42" points="177,190.2 177,193.2 180,193.2 				"/>
				<polyline class="st42" points="181.7,193.2 184.7,193.2 184.7,196.2 				"/>
				<line class="st45" x1="184.7" y1="198.9" x2="184.7" y2="204.3"/>
				<polyline class="st42" points="184.7,205.6 184.7,208.6 181.7,208.6 				"/>
				<polyline class="st42" points="180,208.6 177,208.6 177,211.6 				"/>
				<line class="st44" x1="177" y1="215.9" x2="177" y2="287.9"/>
				<polyline class="st42" points="177,290.1 177,293.1 180,293.1 				"/>
				<polyline class="st42" points="181.7,293.1 184.7,293.1 184.7,296.1 				"/>
				<polyline class="st42" points="184.7,297.8 184.7,300.8 187.7,300.8 				"/>
				<line class="st44" x1="191.9" y1="300.8" x2="264" y2="300.8"/>
				<polyline class="st42" points="266.1,300.8 269.1,300.8 269.1,297.8 				"/>
				<polyline class="st42" points="269.1,296.1 269.1,293.1 272.1,293.1 				"/>
				<line class="st45" x1="274.8" y1="293.1" x2="280.2" y2="293.1"/>
				<polyline class="st42" points="281.5,293.1 284.5,293.1 284.5,296.1 				"/>
				<polyline class="st42" points="284.5,297.8 284.5,300.8 287.5,300.8 				"/>
				<line class="st44" x1="291.7" y1="300.8" x2="363.8" y2="300.8"/>
				<polyline class="st42" points="365.9,300.8 368.9,300.8 368.9,297.8 				"/>
				<polyline class="st42" points="368.9,296.1 368.9,293.1 371.9,293.1 				"/>
				<polyline class="st42" points="373.6,293.1 376.6,293.1 376.6,290.1 				"/>
				<line class="st44" x1="376.6" y1="285.8" x2="376.6" y2="213.7"/>
				<polyline class="st42" points="376.6,211.6 376.6,208.6 373.6,208.6 				"/>
				<polyline class="st42" points="371.9,208.6 368.9,208.6 368.9,205.6 				"/>
				<line class="st45" x1="368.9" y1="202.9" x2="368.9" y2="197.6"/>
				<polyline class="st42" points="368.9,196.2 368.9,193.2 371.9,193.2 				"/>
			</g>
		</g>
	</g>
</g>
</svg>
